<svg version="1.1" id="Layer_1" xmlns="http://www.w3.org/2000/svg" xmlns:xlink="http://www.w3.org/1999/xlink" x="0px" y="0px"
	 width="100%" viewBox="0 0 289 458" enable-background="new 0 0 289 458" xml:space="preserve">
<path fill="none" opacity="1.000000" stroke="#000000" stroke-linecap="round" stroke-linejoin="round" stroke-width="9.000000"
	d="
M110.000000,12.500000 
	C110.000000,108.000000 110.000000,203.500000 110.000000,299.000000 
"/>
<path fill="none" opacity="1.000000" stroke="#000000" stroke-linecap="round" stroke-linejoin="round" stroke-width="8.000000"
	d="
M194.000000,157.500000 
	C193.198730,159.103210 193.511871,160.825592 193.511337,162.500000 
	C193.497101,207.333328 193.500000,252.166672 193.500000,297.000000 
	C193.500000,345.833344 193.500000,394.666656 193.500000,443.500000 
"/>
<path fill="none" opacity="1.000000" stroke="#000000" stroke-linecap="round" stroke-linejoin="round" stroke-width="8.000000"
	d="
M277.500000,445.500000 
	C249.507919,444.556915 221.448044,447.409668 193.500000,444.000000 
	C165.551956,447.409668 137.492081,444.556915 109.500000,445.500000 
"/>
<path fill="none" opacity="1.000000" stroke="#000000" stroke-linecap="round" stroke-linejoin="round" stroke-width="9.000000"
	d="
M193.000000,11.000000 
	C137.666672,11.000000 82.333336,11.000000 27.000000,11.000000 
"/>
<path fill="none" opacity="1.000000" stroke="#000000" stroke-linecap="round" stroke-linejoin="round" stroke-width="8.000000"
	d="
M277.500000,155.500000 
	C249.837143,156.149017 222.144547,155.971664 194.499512,155.998352 
	C166.858261,156.025024 139.163239,156.117523 111.500000,155.500000 
"/>
<path fill="none" opacity="1.000000" stroke="#000000" stroke-linecap="round" stroke-linejoin="round" stroke-width="8.000000"
	d="
M192.500000,300.500000 
	C137.166672,300.500000 81.833336,300.500000 26.500000,300.500000 
"/>
</svg>